<?xml version="1.0" encoding="UTF-8"?>
<svg xmlns="http://www.w3.org/2000/svg" id="Layer_2" data-name="Layer 2" viewBox="0 0 270.86 89.97">
  <defs>
    <style>
      .cls-1, .cls-2 {
        fill: #231f20;
        stroke-width: 0px;
      }

      .cls-2 {
        fill-rule: evenodd;
      }
    </style>
  </defs>
  <g id="Layer_1-2" data-name="Layer 1">
    <g>
      <rect class="cls-1" x="94.33" width="2" height="89.97"></rect>
      <g>
        <path class="cls-1" d="M136.63,19.35v3.77c0,4.64-2.24,7.17-6.8,7.17h-2.15v10.9h-4.56V12.18h6.71c4.56,0,6.8,2.53,6.8,7.17ZM127.67,16.33v9.82h2.15c1.45,0,2.24-.66,2.24-2.73v-4.35c0-2.07-.79-2.74-2.24-2.74h-2.15Z"></path>
        <path class="cls-1" d="M148.47,41.19c-.25-.75-.42-1.2-.42-3.56v-4.56c0-2.69-.91-3.69-2.98-3.69h-1.57v11.81h-4.56V12.18h6.88c4.72,0,6.75,2.2,6.75,6.67v2.28c0,2.98-.95,4.93-2.98,5.88,2.28.95,3.02,3.15,3.02,6.17v4.48c0,1.41.04,2.44.5,3.52h-4.64ZM143.5,16.33v8.91h1.78c1.7,0,2.74-.75,2.74-3.07v-2.86c0-2.07-.71-2.98-2.32-2.98h-2.2Z"></path>
        <path class="cls-1" d="M160.16,24.41h6.26v4.14h-6.26v8.49h7.87v4.14h-12.43V12.18h12.43v4.14h-7.87v8.08Z"></path>
        <path class="cls-1" d="M175.4,25.07h5.88v4.14h-5.88v11.98h-4.56V12.18h12.06v4.14h-7.5v8.74Z"></path>
        <path class="cls-1" d="M189.66,24.41h6.26v4.14h-6.26v8.49h7.87v4.14h-12.43V12.18h12.43v4.14h-7.87v8.08Z"></path>
        <path class="cls-1" d="M200.35,12.18h4.56v29.01h-4.56V12.18Z"></path>
        <path class="cls-1" d="M206.89,12.18h14.09v4.14h-4.77v24.86h-4.56v-24.86h-4.77v-4.14Z"></path>
        <path class="cls-1" d="M227.32,12.18v22.38c0,2.07.91,2.82,2.36,2.82s2.36-.75,2.36-2.82V12.18h4.31v22.09c0,4.64-2.32,7.29-6.8,7.29s-6.8-2.65-6.8-7.29V12.18h4.56Z"></path>
        <path class="cls-1" d="M248.99,41.19c-.25-.75-.42-1.2-.42-3.56v-4.56c0-2.69-.91-3.69-2.98-3.69h-1.57v11.81h-4.56V12.18h6.88c4.72,0,6.75,2.2,6.75,6.67v2.28c0,2.98-.95,4.93-2.98,5.88,2.28.95,3.02,3.15,3.02,6.17v4.48c0,1.41.04,2.44.5,3.52h-4.64ZM244.01,16.33v8.91h1.78c1.7,0,2.74-.75,2.74-3.07v-2.86c0-2.07-.71-2.98-2.32-2.98h-2.2Z"></path>
        <path class="cls-1" d="M270.86,41.19h-4.6l-.79-5.26h-5.59l-.79,5.26h-4.19l4.64-29.01h6.67l4.64,29.01ZM260.46,31.99h4.39l-2.2-14.67-2.2,14.67Z"></path>
        <path class="cls-1" d="M123.12,48.45h7.21c4.56,0,6.8,2.53,6.8,7.17v14.67c0,4.64-2.24,7.17-6.8,7.17h-7.21v-29.01ZM127.67,52.59v20.72h2.57c1.45,0,2.32-.75,2.32-2.82v-15.08c0-2.07-.87-2.82-2.32-2.82h-2.57Z"></path>
        <path class="cls-1" d="M144.58,60.67h6.26v4.14h-6.26v8.49h7.87v4.14h-12.43v-29.01h12.43v4.14h-7.87v8.08Z"></path>
        <path class="cls-1" d="M167.82,48.11c4.43,0,6.71,2.65,6.71,7.29v.91h-4.31v-1.2c0-2.07-.83-2.86-2.28-2.86s-2.28.79-2.28,2.86c0,5.97,8.91,7.09,8.91,15.37,0,4.64-2.32,7.29-6.8,7.29s-6.8-2.65-6.8-7.29v-1.78h4.31v2.07c0,2.07.91,2.82,2.36,2.82s2.36-.75,2.36-2.82c0-5.97-8.91-7.09-8.91-15.37,0-4.64,2.28-7.29,6.71-7.29Z"></path>
        <path class="cls-1" d="M191.94,77.45h-4.6l-.79-5.26h-5.59l-.79,5.26h-4.19l4.64-29.01h6.67l4.64,29.01ZM181.53,68.25h4.39l-2.2-14.67-2.2,14.67Z"></path>
        <path class="cls-1" d="M207.68,55.12v1.04c0,2.98-.91,4.89-2.94,5.84,2.45.95,3.4,3.15,3.4,6.22v2.36c0,4.47-2.36,6.88-6.92,6.88h-7.17v-29.01h6.88c4.72,0,6.75,2.2,6.75,6.67ZM198.61,52.59v7.67h1.78c1.7,0,2.74-.75,2.74-3.07v-1.61c0-2.07-.71-2.98-2.32-2.98h-2.2ZM198.61,64.4v8.91h2.61c1.53,0,2.36-.71,2.36-2.86v-2.53c0-2.69-.87-3.52-2.94-3.52h-2.03Z"></path>
        <path class="cls-1" d="M225.62,77.45h-4.6l-.79-5.26h-5.59l-.79,5.26h-4.19l4.64-29.01h6.67l4.64,29.01ZM215.22,68.25h4.39l-2.2-14.67-2.2,14.67Z"></path>
        <path class="cls-1" d="M237.26,77.45c-.25-.75-.42-1.2-.42-3.56v-4.56c0-2.69-.91-3.69-2.98-3.69h-1.57v11.81h-4.56v-29.01h6.88c4.72,0,6.75,2.2,6.75,6.67v2.28c0,2.98-.95,4.93-2.98,5.88,2.28.95,3.02,3.15,3.02,6.17v4.47c0,1.41.04,2.45.5,3.52h-4.64ZM232.29,52.59v8.91h1.78c1.7,0,2.74-.75,2.74-3.07v-2.86c0-2.07-.71-2.98-2.32-2.98h-2.2Z"></path>
        <path class="cls-1" d="M259.14,77.45h-4.6l-.79-5.26h-5.59l-.79,5.26h-4.19l4.64-29.01h6.67l4.64,29.01ZM256.03,42.31l-4.23,4.6h-3.07l2.82-4.6h4.47ZM248.74,68.25h4.39l-2.2-14.67-2.2,14.67Z"></path>
      </g>
      <g>
        <path class="cls-1" d="M43.72,19.5c-.21,0-.4-.02-.56-.07-.04,0-.06-.04-.06-.08s.02-.07.05-.09c.38-.19.61-.6.63-.88,0-.04.03-.07.07-.08l.56-.1c.02-.23.04-.55.04-.58,0-.03.02-.06.05-.08.15-.07.41-.2.46-.24.03-.03.08-.02.12,0,.11.11.54.27.59.29.03,0,.05.02.06.05s0,.06-.02.08c-.21.27-.59.71-.83.96-.2.2-.42.35-.66.52-.12.08-.24.17-.36.26-.04.03-.09.02-.14.02ZM43.41,19.31c.09.01.2.02.31.02.02,0,.04,0,.06,0,.11-.09.23-.17.34-.25.23-.16.45-.31.64-.5.21-.21.53-.58.74-.85-.14-.05-.37-.15-.5-.24-.11.07-.3.16-.39.2,0,.14-.04.48-.05.6,0,.04-.03.07-.07.08l-.56.1c-.04.3-.25.63-.52.84ZM23.84,19.5s-.1.01-.14-.02c-.12-.09-.24-.18-.36-.26-.24-.16-.46-.32-.65-.51-.24-.24-.62-.68-.83-.96-.02-.02-.02-.06-.01-.09s.04-.05.07-.05c.06-.02.48-.18.58-.28.03-.03.08-.03.12,0,.06.05.31.17.46.24.03.01.05.04.05.08,0,.03.03.35.04.58l.56.1s.07.04.07.08c.02.28.25.68.61.87h.02s.05.06.05.09c0,.04-.03.07-.06.08-.16.04-.35.07-.56.07ZM23.78,19.33c.12,0,.25,0,.36-.02-.27-.21-.48-.53-.52-.84l-.56-.1s-.07-.04-.07-.08c0-.12-.04-.47-.05-.6-.09-.04-.28-.14-.39-.2-.13.09-.35.19-.5.24.22.27.54.64.74.85.18.18.4.33.63.49.12.08.23.16.35.25ZM25.97,17.48c-.18,0-.3,0-.32,0-.04,0-.08-.03-.08-.08,0-.04.02-.08.06-.09,0,0,.38-.11.52-.46.12-.31.04-.73-.27-1.23-.01-.02-.02-.04,0-.07,0-.02.02-.04.04-.05.33-.19.29-.5.21-.79-.01-.04-.02-.07-.02-.09,0-.03,0-.06.03-.07.02-.02.05-.03.08-.02.25.06.38-.02.44-.29,0-.03.03-.06.07-.06s.07,0,.09.03c.06.08.19.13.33.13.17.02.33-.05.45-.14.03-.03.08-.03.11,0l.06.05c.15.14.25.23.42.16.02-.01.05-.01.08,0,.02.01.04.04.04.06,0,.01,0,.03,0,.06.01.14.04.47.38.68.04.02.05.07.03.11-.08.18-.23.54-.27.96l-.07.78s-.02.06-.05.07c-.68.32-1.8.36-2.35.36ZM26.07,15.6c.3.52.38.96.24,1.31-.07.18-.19.31-.31.4.53,0,1.57-.05,2.21-.33l.07-.73c.04-.39.16-.74.25-.94-.31-.22-.37-.54-.39-.71-.22.04-.38-.12-.5-.23h0c-.14.09-.31.14-.48.14,0,0-.02,0-.03,0-.14,0-.26-.04-.35-.1-.09.22-.25.32-.47.31.06.21.13.63-.23.89ZM41.58,17.48c-.55,0-1.67-.04-2.35-.36-.03-.01-.05-.04-.05-.07l-.07-.78c-.04-.41-.18-.78-.27-.96-.02-.04,0-.09.03-.11.34-.21.37-.54.38-.68,0-.02,0-.04,0-.05,0-.03.02-.05.04-.06.02-.01.05-.01.08,0,.16.07.27-.02.42-.16l.06-.05s.08-.03.11,0c.28.22.67.16.79.01.02-.02.05-.04.09-.03s.06.03.07.06c.06.27.19.35.44.29.03,0,.06,0,.08.02.02.02.03.05.03.07,0,.02,0,.05-.02.09-.08.29-.12.61.21.79.02.01.04.03.04.05,0,.02,0,.05,0,.07-.3.5-.39.92-.27,1.23.14.35.51.46.52.46.04.01.07.05.06.09,0,.04-.04.07-.08.08-.02,0-.14,0-.32,0ZM39.35,16.98c.64.28,1.67.32,2.21.33-.12-.09-.24-.21-.31-.4-.14-.35-.06-.79.23-1.31-.37-.26-.29-.67-.23-.89-.23.01-.38-.09-.47-.31-.21.13-.57.15-.86-.04h0c-.11.11-.28.26-.5.23-.02.17-.08.49-.39.71.09.2.22.55.25.94l.07.73Z"></path>
        <path class="cls-1" d="M33.78,64.09s-.03,0-.05-.02c-1.2-.83-2.04-2.74-2.04-4.64v-3.41s.04-.09.09-.09h4.01s.09.04.09.09v3.41c0,1.91-.84,3.82-2.04,4.64-.01.01-.03.02-.05.02ZM31.86,56.11v3.32c0,1.83.79,3.65,1.92,4.47,1.13-.81,1.92-2.64,1.92-4.47v-3.32h-3.84ZM33.78,63.66s-.04,0-.05-.02c-1.01-.84-1.7-2.53-1.7-4.21v-3.07s.04-.09.09-.09h3.33s.09.04.09.09v3.07c0,1.68-.68,3.37-1.7,4.21-.02.01-.04.02-.05.02ZM32.2,56.45v2.98c0,1.6.63,3.21,1.58,4.03.95-.82,1.58-2.43,1.58-4.03v-2.98h-3.16ZM33.78,55.73s-.03,0-.05-.02c-1.2-.83-2.04-2.73-2.04-4.64v-3.41s.04-.09.09-.09h4.01s.09.04.09.09v3.41c0,1.91-.84,3.81-2.04,4.64-.01.01-.03.02-.05.02ZM31.86,47.75v3.32c0,1.83.79,3.65,1.92,4.46,1.13-.81,1.92-2.64,1.92-4.46v-3.32h-3.84ZM38.5,55.73s-.03,0-.05-.02c-1.2-.83-2.04-2.73-2.04-4.64v-3.41s.04-.09.09-.09h4.01s.09.04.09.09v3.41c0,1.91-.84,3.82-2.04,4.64-.01.01-.03.02-.05.02ZM36.58,47.75v3.32c0,1.83.79,3.65,1.92,4.46,1.13-.81,1.92-2.64,1.92-4.46v-3.32h-3.84ZM29.06,55.73s-.03,0-.05-.02c-1.2-.83-2.04-2.73-2.04-4.64v-3.41s.04-.09.09-.09h4.01s.09.04.09.09v3.41c0,1.91-.84,3.82-2.04,4.64-.01.01-.03.02-.05.02ZM27.14,47.75v3.32c0,1.83.79,3.65,1.92,4.46,1.13-.81,1.92-2.64,1.92-4.46v-3.32h-3.84ZM38.5,55.3s-.04,0-.05-.02c-1.01-.84-1.7-2.53-1.7-4.21v-3.07s.04-.09.09-.09h3.33s.09.04.09.09v3.07c0,1.68-.68,3.37-1.7,4.21-.02.01-.04.02-.05.02ZM36.92,48.09v2.98c0,1.6.63,3.21,1.58,4.03.95-.82,1.58-2.43,1.58-4.03v-2.98h-3.16ZM33.78,55.3s-.04,0-.05-.02c-1.01-.84-1.7-2.53-1.7-4.21v-3.07s.04-.09.09-.09h3.33s.09.04.09.09v3.07c0,1.68-.68,3.37-1.7,4.21-.02.01-.04.02-.05.02ZM32.2,48.09v2.98c0,1.6.63,3.21,1.58,4.03.95-.82,1.58-2.43,1.58-4.03v-2.98h-3.16ZM29.06,55.3s-.04,0-.05-.02c-1.01-.84-1.7-2.53-1.7-4.21v-3.07s.04-.09.09-.09h3.33s.09.04.09.09v3.07c0,1.68-.68,3.37-1.7,4.21-.02.01-.04.02-.05.02ZM27.48,48.09v2.98c0,1.6.63,3.21,1.58,4.03.95-.82,1.58-2.43,1.58-4.03v-2.98h-3.16ZM33.78,47.38s-.03,0-.05-.02c-1.2-.83-2.04-2.73-2.04-4.64v-3.41s.04-.09.09-.09h4.01s.09.04.09.09v3.41c0,1.91-.84,3.82-2.04,4.64-.01.01-.03.02-.05.02ZM31.86,39.4v3.32c0,1.83.79,3.65,1.92,4.47,1.13-.81,1.92-2.64,1.92-4.47v-3.32h-3.84ZM33.78,46.95s-.04,0-.05-.02c-1.01-.84-1.7-2.53-1.7-4.21v-3.07s.04-.09.09-.09h3.33s.09.04.09.09v3.07c0,1.68-.68,3.37-1.7,4.21-.02.01-.04.02-.05.02ZM32.2,39.74v2.98c0,1.6.63,3.21,1.58,4.03.95-.82,1.58-2.43,1.58-4.03v-2.98h-3.16Z"></path>
        <path class="cls-2" d="M34.06,10.54c0-.16-.13-.29-.29-.29s-.29.13-.29.29.13.29.29.29.29-.13.29-.29Z"></path>
        <path class="cls-2" d="M34.06,9.28c0-.16-.13-.29-.29-.29s-.29.13-.29.29.13.29.29.29.29-.13.29-.29Z"></path>
        <path class="cls-2" d="M34.06,8.02c0-.16-.13-.29-.29-.29s-.29.13-.29.29.13.29.29.29.29-.13.29-.29Z"></path>
        <path class="cls-2" d="M34.06,6.76c0-.16-.13-.29-.29-.29s-.29.13-.29.29.13.29.29.29.29-.13.29-.29Z"></path>
        <path class="cls-2" d="M34.06,5.49c0-.16-.13-.29-.29-.29s-.29.13-.29.29.13.29.29.29.29-.13.29-.29Z"></path>
        <path class="cls-2" d="M36.02,5.23c0-.16-.13-.29-.29-.29s-.29.13-.29.29.13.29.29.29.29-.13.29-.29Z"></path>
        <path class="cls-2" d="M37.03,5.72c0-.16-.13-.29-.29-.29s-.29.13-.29.29.13.29.29.29.29-.13.29-.29Z"></path>
        <path class="cls-2" d="M38.28,5.72c0-.16-.13-.29-.29-.29s-.29.13-.29.29.13.29.29.29.29-.13.29-.29Z"></path>
        <path class="cls-2" d="M39.35,5.36c0-.16-.13-.29-.29-.29s-.29.13-.29.29.13.29.29.29.29-.13.29-.29Z"></path>
        <path class="cls-2" d="M40.33,4.88c0-.16-.13-.29-.29-.29s-.29.13-.29.29.13.29.29.29.29-.13.29-.29Z"></path>
        <path class="cls-2" d="M37.46,3.45c0-.16-.13-.29-.29-.29s-.29.13-.29.29.13.29.29.29.29-.13.29-.29Z"></path>
        <path class="cls-2" d="M38.65,3.1c0-.16-.13-.29-.29-.29s-.29.13-.29.29.13.29.29.29.29-.13.29-.29Z"></path>
        <path class="cls-2" d="M39.91,3.1c0-.16-.13-.29-.29-.29s-.29.13-.29.29.13.29.29.29.29-.13.29-.29Z"></path>
        <path class="cls-2" d="M41.27,3.25c0-.16-.13-.29-.29-.29s-.29.13-.29.29.13.29.29.29.29-.13.29-.29Z"></path>
        <path class="cls-2" d="M42.52,3.71c0-.16-.13-.29-.29-.29s-.29.13-.29.29.13.29.29.29.29-.13.29-.29Z"></path>
        <path class="cls-2" d="M43.59,4.32c0-.16-.13-.29-.29-.29s-.29.13-.29.29.13.29.29.29.29-.13.29-.29Z"></path>
        <path class="cls-2" d="M44.47,5.37c0-.16-.13-.29-.29-.29s-.29.13-.29.29.13.29.29.29.29-.13.29-.29Z"></path>
        <path class="cls-2" d="M44.97,6.38c0-.16-.13-.29-.29-.29s-.29.13-.29.29.13.29.29.29.29-.13.29-.29Z"></path>
        <path class="cls-2" d="M45.32,7.54c0-.16-.13-.29-.29-.29s-.29.13-.29.29.13.29.29.29.29-.13.29-.29Z"></path>
        <path class="cls-2" d="M45.33,8.86c0-.16-.13-.29-.29-.29s-.29.13-.29.29.13.29.29.29.29-.13.29-.29Z"></path>
        <path class="cls-2" d="M44.95,10.25c0-.16-.13-.29-.29-.29s-.29.13-.29.29.13.29.29.29.29-.13.29-.29Z"></path>
        <path class="cls-2" d="M43.97,11.46c0-.16-.13-.29-.29-.29s-.29.13-.29.29.13.29.29.29.29-.13.29-.29Z"></path>
        <path class="cls-2" d="M42.6,12.38c0-.16-.13-.29-.29-.29s-.29.13-.29.29.13.29.29.29.29-.13.29-.29Z"></path>
        <path class="cls-2" d="M47.64,15.34c0-.16-.13-.29-.29-.29s-.29.13-.29.29.13.29.29.29.29-.13.29-.29Z"></path>
        <path class="cls-2" d="M48.73,14.4c0-.16-.13-.29-.29-.29s-.29.13-.29.29.13.29.29.29.29-.13.29-.29Z"></path>
        <path class="cls-2" d="M49.64,13.19c0-.16-.13-.29-.29-.29s-.29.13-.29.29.13.29.29.29.29-.13.29-.29Z"></path>
        <path class="cls-2" d="M50.11,11.73c0-.16-.13-.29-.29-.29s-.29.13-.29.29.13.29.29.29.29-.13.29-.29Z"></path>
        <path class="cls-2" d="M50.27,10.13c0-.16-.13-.29-.29-.29s-.29.13-.29.29.13.29.29.29.29-.13.29-.29Z"></path>
        <path class="cls-2" d="M49.93,8.57c0-.16-.13-.29-.29-.29s-.29.13-.29.29.13.29.29.29.29-.13.29-.29Z"></path>
        <path class="cls-2" d="M47.94,6.1c0-.16-.13-.29-.29-.29s-.29.13-.29.29.13.29.29.29.29-.13.29-.29Z"></path>
        <path class="cls-2" d="M46.75,5.26c0-.16-.13-.29-.29-.29s-.29.13-.29.29.13.29.29.29.29-.13.29-.29Z"></path>
        <path class="cls-2" d="M45.48,4.75c0-.16-.13-.29-.29-.29s-.29.13-.29.29.13.29.29.29.29-.13.29-.29Z"></path>
        <path class="cls-2" d="M39.27,84.58c-.18.13-.64-.17-.92.04-.26.2-.1.88-.28.88-.38.01-.47-1.25.41-1.38.46-.07.99.32.8.46Z"></path>
        <path class="cls-2" d="M38.54,83.09c-.18.13-.64-.17-.92.04-.26.2-.1.88-.28.88-.38.01-.47-1.25.41-1.38.46-.07.99.32.8.46Z"></path>
        <path class="cls-2" d="M40.78,83.16c-.2-.08-.22-.63-.55-.74-.31-.11-.78.41-.89.26-.22-.31.78-1.09,1.37-.44.32.35.29,1,.06.92Z"></path>
        <path class="cls-2" d="M40.67,84.98c-.13-.18.17-.64-.04-.92-.2-.27-.88-.1-.88-.28-.01-.38,1.25-.47,1.38.41.07.46-.32.99-.46.8Z"></path>
        <path class="cls-2" d="M42,84.94c-.07-.21.33-.58.2-.9-.12-.31-.82-.32-.78-.5.09-.36,1.33-.13,1.23.75-.05.47-.56.87-.65.65Z"></path>
        <path class="cls-2" d="M42.23,87.18c.03-.22.56-.36.59-.71.03-.33-.58-.67-.46-.8.24-.28,1.24.5.74,1.23-.26.39-.9.51-.88.28Z"></path>
        <path class="cls-2" d="M41.03,87.1c.05-.21.59-.31.65-.66.06-.32-.52-.71-.39-.84.27-.26,1.2.6.64,1.29-.3.36-.95.43-.9.2Z"></path>
        <path class="cls-2" d="M39.83,86.83c-.04-.22.43-.51.36-.85-.06-.32-.75-.46-.68-.63.15-.34,1.33.11,1.08.95-.14.45-.71.76-.76.53Z"></path>
        <path class="cls-2" d="M38.79,87.91c.19-.11.62.23.92.05.28-.17.18-.87.36-.85.38.02.35,1.29-.54,1.34-.47.02-.95-.41-.75-.54Z"></path>
        <path class="cls-2" d="M37.26,87.97c.19.11.11.66.41.83.29.16.84-.27.92-.1.16.34-.96.94-1.43.19-.25-.4-.11-1.04.1-.92Z"></path>
        <path class="cls-2" d="M37.65,85.77c.1.19-.25.62-.08.92.16.29.86.21.84.39-.04.37-1.3.31-1.32-.58,0-.47.44-.94.56-.74Z"></path>
        <path class="cls-2" d="M36.47,85.62c.05.21-.39.54-.3.87.09.32.78.41.71.58-.13.35-1.34-.02-1.14-.88.11-.46.66-.8.72-.58Z"></path>
        <path class="cls-2" d="M40.2,88.96c.19-.11.62.23.92.05.28-.17.18-.87.36-.85.37.02.35,1.29-.54,1.34-.47.02-.95-.41-.75-.54Z"></path>
        <path class="cls-2" d="M39.23,86.19c0-.21-.17-.39-.39-.39s-.39.17-.39.39.17.39.39.39.39-.17.39-.39Z"></path>
        <path class="cls-2" d="M28.28,84.58c.18.13.64-.17.92.04.26.2.1.88.28.88.38.01.47-1.25-.41-1.38-.46-.07-.99.32-.8.46Z"></path>
        <path class="cls-2" d="M29.01,83.09c.18.13.64-.17.92.04.26.2.1.88.28.88.38.01.47-1.25-.41-1.38-.46-.07-.99.32-.8.46Z"></path>
        <path class="cls-2" d="M26.77,83.16c.2-.08.22-.63.55-.74.31-.11.78.41.89.26.22-.31-.78-1.09-1.37-.44-.32.35-.29,1-.06.92Z"></path>
        <path class="cls-2" d="M26.88,84.98c.13-.18-.17-.64.04-.92.2-.27.88-.1.88-.28.01-.38-1.25-.47-1.38.41-.07.46.32.99.46.8Z"></path>
        <path class="cls-2" d="M25.56,84.94c.07-.21-.33-.58-.2-.9.12-.31.82-.32.78-.5-.09-.36-1.33-.13-1.23.75.05.47.56.87.65.65Z"></path>
        <path class="cls-2" d="M25.32,87.18c-.03-.22-.56-.36-.59-.71-.03-.33.58-.67.46-.8-.24-.28-1.24.5-.74,1.23.26.39.91.51.88.28Z"></path>
        <path class="cls-2" d="M26.53,87.1c-.05-.21-.59-.31-.65-.66-.06-.32.52-.71.39-.84-.27-.26-1.2.6-.64,1.29.29.36.95.43.9.2Z"></path>
        <path class="cls-2" d="M27.72,86.83c.04-.22-.43-.51-.36-.85.06-.32.75-.46.68-.63-.15-.34-1.33.11-1.08.95.14.45.71.76.76.53Z"></path>
        <path class="cls-2" d="M28.77,87.91c-.19-.11-.62.23-.92.05-.28-.17-.18-.87-.36-.85-.38.02-.35,1.29.54,1.34.47.02.95-.41.75-.54Z"></path>
        <path class="cls-2" d="M30.29,87.97c-.19.11-.11.66-.41.83-.29.16-.84-.27-.92-.1-.16.34.96.94,1.43.19.25-.4.11-1.04-.1-.92Z"></path>
        <path class="cls-2" d="M29.9,85.77c-.1.19.25.62.08.92-.16.29-.86.21-.84.39.04.37,1.3.31,1.32-.58,0-.47-.44-.94-.56-.74Z"></path>
        <path class="cls-2" d="M31.09,85.62c-.05.21.39.54.3.87-.09.32-.78.41-.71.58.13.35,1.34-.02,1.14-.88-.11-.46-.66-.8-.72-.58Z"></path>
        <path class="cls-2" d="M27.36,88.96c-.19-.11-.62.23-.92.05-.28-.17-.18-.87-.36-.85-.38.02-.35,1.29.54,1.34.47.02.95-.41.75-.54Z"></path>
        <path class="cls-2" d="M28.32,86.19c0-.21.17-.39.39-.39s.39.17.39.39-.17.39-.39.39-.39-.17-.39-.39Z"></path>
        <polygon class="cls-2" points="35.99 3.9 34.8 3.44 35.43 4.87 32.12 4.87 32.75 3.44 31.56 3.9 31.55 2.43 31.56 .97 32.75 1.43 32.12 0 35.43 0 34.8 1.43 35.99 .97 36 2.43 35.99 3.9"></polygon>
        <path class="cls-2" d="M38.81,11.21c7.19-.27,4.32-5.79,2.81-6.13-2.27,2.52-6.13,2.14-6.13,2.14-.46,1.17.73,3.07.8,3.11.01.03-1.55-.76-1.3-3.4.02,0,5.11-.1,6.13-2.18-.89-.55-1.94-.49-2.97-.27,6.04-2.99,9.24,8.19.66,6.74Z"></path>
        <path class="cls-2" d="M48.56,9.24c1.52,4.65-3.67,5.71-3.67,5.71,5.61-2.87,2.14-6.68,2.06-6.83.54,3.35-2.21,4.76-2.56,5.07,3.55-3.61,1.56-6.08.8-7.31.2.09,2.57.9,3.37,3.36Z"></path>
        <path class="cls-2" d="M45.28,16.33c-.27.02-.8.63-.8.63,0,0-.52-.05-.76-.46-.19.45.19.89.17,1.18,0,0-.27.09-.8-.29-.23.26.04,1.15.05,1.19-.75-.1-.51-1.16-.68-1.78-1.01.07-.53-1.01.09-1.05-.06-.43-.59-.42-.64-.86-.05-.33.36-.92.41-.99-1.15.56-1.13-.56-1.13-.65-.01.07-.46.51-.77.48-.27-.03-.5-.26-.69-.64,0,.89-.59.86-1.09.71.3.49.11,1.1-.57,1.04.13.51.49,1.4.51,1.43-.02-.02-.72-.7-.92-1.3-.39.09-1.39,1.03-2.06.79-.26-.09-.31-.46-.13-.59.1-.1.17.03.33,0,.08-.16.06-.42.34-.38,0,0-.29-.44-.29-.46.02,0,.42-.65.42-.65l-.63-.31.39-.79-.95.11.1-.96-.87.44-.51-.83-.51.83-.87-.44.1.96-.95-.11.39.79-.63.31s.4.65.42.65c0,.03-.29.46-.29.46.29-.04.26.22.34.38.16.03.23-.1.33,0,.19.13.13.5-.13.59-.66.24-1.67-.7-2.06-.79-.2.6-.91,1.28-.93,1.3.01-.03.39-.91.51-1.43-.68.06-.87-.55-.56-1.04-.51.14-1.1.18-1.1-.71-.19.38-.42.62-.69.64-.31.03-.76-.4-.77-.48,0,.09.02,1.21-1.13.65.05.07.46.66.41.99-.06.44-.59.44-.64.86.61.04,1.09,1.12.09,1.05-.18.63.07,1.68-.68,1.78,0-.04.27-.92.04-1.19-.53.38-.8.29-.8.29-.02-.28.36-.73.17-1.18-.24.41-.76.46-.76.46,0,0-.53-.61-.79-.63-.06.37-.13,1.28-1.62.14,0,.05,0,1.38,2.71,3.4,1.62.13,2.24-.74,2.61-1.85,1.97-.03,3.45-.56,4.41-1.59,1.66,1.03,3.06.19,3.4-.34.32.53,1.73,1.36,3.39.34.97,1.03,2.44,1.56,4.41,1.59.38,1.11.99,1.98,2.61,1.85,2.71-2.01,2.71-3.35,2.71-3.4-1.49,1.14-1.56.23-1.61-.14h0ZM23.84,19.42h-.09c-.34-.27-.72-.48-1.01-.77-.23-.24-.61-.68-.83-.96.02,0,.5-.17.64-.31.08.07.48.26.48.26,0,.03.05.65.05.65l.63.11c.02.33.28.75.66.94h.02c-.16.06-.34.07-.54.07h0ZM28.36,16.26l-.07.78c-.9.42-2.63.35-2.63.35,0,0,1.2-.33.3-1.82.51-.28.25-.86.24-.96.36.09.49-.1.54-.35.16.19.61.24.91,0,.14.13.31.34.57.23.01.09,0,.54.43.79-.12.25-.24.61-.28.99h0ZM33.78,15.44s-.74.72-1.31.76c.22-.16.35-.3.39-.58.13-1.01-.83-.87-.83-.87l.27-.38s-.31-.46-.31-.46l.61-.27-.29-.48.69.04-.09-.73.52.24.35-.64s0,0,.01.01c0,0,0-.01,0-.01l.35.64.52-.24-.09.73.69-.04-.29.48.6.27s-.3.46-.31.46l.27.38s-.96-.14-.83.87c.04.28.17.42.39.58-.57-.03-1.31-.76-1.31-.76h0ZM39.27,17.04l-.07-.78c-.03-.38-.16-.74-.28-.99.43-.26.41-.7.42-.79.26.11.43-.1.57-.23.3.24.75.19.91,0,.06.25.19.44.54.35-.01.11-.27.68.24.96-.9,1.49.3,1.82.3,1.82,0,0-1.73.07-2.63-.35h0ZM44.81,18.65c-.29.29-.66.5-1.01.77h-.09c-.2,0-.37-.02-.54-.06h.02c.38-.21.64-.62.66-.96l.62-.11s.05-.62.05-.65c0,0,.39-.19.48-.26.14.14.62.31.64.31-.22.28-.59.72-.83.96Z"></path>
        <path class="cls-2" d="M28.75,11.21c-7.19-.27-4.32-5.79-2.81-6.13,2.27,2.52,6.13,2.14,6.13,2.14.46,1.17-.73,3.07-.8,3.11-.01.03,1.55-.76,1.3-3.4-.02,0-5.11-.1-6.13-2.18.89-.55,1.94-.49,2.97-.27-6.04-2.99-9.24,8.19-.66,6.74Z"></path>
        <path class="cls-2" d="M18.99,9.24c-1.52,4.65,3.67,5.71,3.67,5.71-5.61-2.87-2.14-6.68-2.06-6.83-.54,3.35,2.21,4.76,2.56,5.07-3.55-3.61-1.56-6.08-.8-7.31-.2.09-2.57.9-3.37,3.36Z"></path>
        <polygon class="cls-2" points="36.46 19.49 35.47 19.95 34.68 19.21 35.66 18.75 36.46 19.49"></polygon>
        <polygon class="cls-2" points="38.17 20.06 37.12 20.35 36.46 19.49 37.51 19.2 38.17 20.06"></polygon>
        <polygon class="cls-2" points="39.77 20.9 38.69 21.02 38.17 20.06 39.26 19.94 39.77 20.9"></polygon>
        <polygon class="cls-2" points="41.22 21.98 40.13 21.93 39.77 20.9 40.86 20.95 41.22 21.98"></polygon>
        <polygon class="cls-2" points="41.36 22.53 41.81 22.06 41.22 21.98 41.36 22.53"></polygon>
        <path class="cls-2" d="M40.49,23.47s-.11.45-.59.13c-.78.47-1.17,1.35-1.55,2.22-.3-1.18.43-1.99.92-2.65-.09-.18-.34-.46-.59-.42-.19.03-1.42,1.52-1.42,1.52,0,0-.89-.49-1.35-.64-.61-.19-1.37-.29-2.13-.29-.77,0-1.53.1-2.13.29-.46.15-1.35.64-1.35.64,0,0-1.23-1.49-1.42-1.52-.25-.04-.5.24-.59.42.5.66,1.22,1.47.92,2.65-.38-.88-.77-1.75-1.55-2.22-.48.31-.59-.13-.59-.13l2.23-1.46c.11.13.19.43.04.59l1.05,1.13c.88-.55,2.13-.83,3.39-.84,1.26.02,2.52.29,3.39.84l1.05-1.13c-.15-.16-.06-.45.04-.59l2.23,1.46Z"></path>
        <polygon class="cls-2" points="34.68 19.19 33.78 19.8 32.87 19.19 33.78 18.58 34.68 19.19"></polygon>
        <polygon class="cls-2" points="31.09 19.49 32.08 19.95 32.88 19.21 31.89 18.75 31.09 19.49"></polygon>
        <polygon class="cls-2" points="29.38 20.06 30.43 20.35 31.09 19.49 30.04 19.2 29.38 20.06"></polygon>
        <polygon class="cls-2" points="27.78 20.9 28.87 21.02 29.38 20.06 28.3 19.94 27.78 20.9"></polygon>
        <polygon class="cls-2" points="26.34 21.98 27.42 21.93 27.78 20.9 26.7 20.95 26.34 21.98"></polygon>
        <polygon class="cls-2" points="25.74 22.06 26.19 22.53 26.34 21.98 25.74 22.06"></polygon>
        <path class="cls-2" d="M40.95,22.93l-.22.25c-1.18-1.05-3.41-2.73-6.95-2.73s-5.77,1.68-6.95,2.73l-.22-.25s2.57-2.83,7.17-2.83,7.17,2.83,7.17,2.83Z"></path>
        <path class="cls-2" d="M42.63,21.21l-.48.46s-2.87-3.39-8.37-3.39-8.37,3.39-8.37,3.39l-.48-.46s3-3.45,8.85-3.45,8.85,3.45,8.85,3.45Z"></path>
        <path class="cls-2" d="M42.94,25.29c-1.02.07-1.02-1.23-1.02-1.48.53.69,1.34,1.02,1.72-.21.14.27.33,1.61-.7,1.69Z"></path>
        <path class="cls-2" d="M24.61,25.29c1.02.07,1.02-1.23,1.02-1.48-.53.69-1.34,1.02-1.72-.21-.14.27-.33,1.61.7,1.69Z"></path>
        <path class="cls-2" d="M35.61,28.35c-.29.31-.64.51-.66,1.09-.62-.09-.9.12-1.17.38-.28-.26-.55-.46-1.17-.38-.02-.59-.37-.78-.67-1.09.1-.21.14-.41.13-.61,0-.2-.03-.4-.13-.61.29-.31.64-.51.67-1.09.62.09.9-.12,1.17-.38.28.26.55.46,1.17.38.02.58.37.78.66,1.09-.1.21-.14.41-.13.61,0,.2.03.4.13.61Z"></path>
        <rect class="cls-1" x="44.76" y="53.41" width=".65" height="8.58"></rect>
        <rect class="cls-1" x="42.79" y="53.41" width=".65" height="8.58"></rect>
        <rect class="cls-1" x="44.76" y="39.31" width=".65" height="9.49"></rect>
        <path class="cls-2" d="M56.99,36.24c-.65-1.38-1.72.04-1.72.04-1.24-.91-1.88-5.11-2.15-7.14-1.13-8.36-5.32-9.19-5.32-9.19.14-1.08-.14-1.43-.14-1.43-.21,1.39-1.41,2.01-1.41,2.01-3.17,3.37-.62,5.42-.62,5.42,0,0-.38,2.61-2.7,2.56-2.28-.05-2.31-2.21-2.31-2.31,1.64.37,1.13-1.11,1.01-1.22-.12-.11-.79-.84-1.47.34-.69,1.18-.55,3.28-.21,4.07.34.79,1.01,2.65,3.53,1.98,2.58-.68,2.86-5.5,2.86-5.5,0,0,.83-.21.83-1.09s-1.2-.67-1.2-.67c-.36-1.02.16-3.2,1.48-3.2s1.75,1.1,1.75,1.1c.04,2.88,1.26,3.15,1.26,3.15-.17,2.3,1.18,2.27,1.18,2.27-.99,2.63.71,3.57.71,3.57-.7,3.16.56,3.61.56,3.61.52,3.01,2.34,2.51,2.34,2.51,0,0,.59.44.81.5.22.06,1.6,0,.95-1.38h0ZM43.26,30.03c-2.12.11-2.6-2.19-2.6-2.19,0,0,2.49,2.93,4.91-.58,0,0-.19,2.66-2.31,2.78Z"></path>
        <path class="cls-2" d="M46.66,23.52s2.52-.72,1.89,1.72c0,0,1.49.87.67,2.23,0,0,.88.71.42,3.31,0,0-1.48.52-2.13,2.32,0,0-.88-.62.78-2.42,0,0-.37-.95-1.17.65,0,0-.47-.77,1-1.98,0,0,.51-1.84-1.08.05,0,0-.42-.54.75-1.58,0,0,1.1-2-.86-.52,0,0,2.07-3.55-.28-3.78Z"></path>
        <path class="cls-2" d="M47.8,34.19s.28-1.55,2.44-1.89c0,0,.32-.05.32.43s-1.13.51-1.13.51c0,0-.41-.06-1.63.95Z"></path>
        <path class="cls-2" d="M48.09,35.07s.15-1.45,2.75-1.6c0,0,.32-.05.32.43s-.59.44-.59.44c0,0-1.26-.4-2.47.72Z"></path>
        <path class="cls-2" d="M60.39,54.26c-.38.09-.94.57-1.28.16-.23-.28.51-1.18.53-1.21-.67.28-1.08.48-1.8.54-.13-.72.63-1.14.71-1.34-.04.01-1.71.71-1.94-.09-.36-1.61,1.39-2.84,1.44-2.84.56.03,1.4-1.4-.08-1.89.08-.41.04-1.37,0-1.8,2.37-1.68,1.27-4.55,1.13-4.62.02-.3-.61-1.51-1.68-.99-.38.18-.64.89-.34,1.25.24.27.84.41.84.41,0,0-1.02,1.95-2.57,1.7-1.55-.25-2.53-1.92-2.26-2.92,2.18.69,2.09-3-.43-1.89-.22-1.65-1.72-4.09-5.33-2.96-.49-1-.86-1.58-1.45-2.48-2.74.34-6.61-.38-8.25-3.84-.85,1.04-2.39,1.52-3.85,1.66-1.46-.14-3.01-.61-3.86-1.66-1.64,3.46-5.51,4.18-8.25,3.84-.59.91-.96,1.48-1.45,2.48-3.61-1.13-5.1,1.31-5.33,2.96-2.51-1.11-2.6,2.58-.43,1.89.27,1-.71,2.67-2.26,2.92-1.55.25-2.57-1.71-2.57-1.7,0,0,.61-.14.84-.41.29-.36.03-1.07-.34-1.25-1.07-.52-1.71.69-1.68.99-.14.07-1.23,2.94,1.13,4.62-.03.43-.08,1.39,0,1.8-1.48.49-.64,1.92-.08,1.89.04,0,1.79,1.23,1.44,2.84-.24.8-1.91.11-1.94.09.09.21.84.63.71,1.34-.73-.06-1.13-.26-1.8-.54.02.03.76.93.53,1.21-.34.41-.91-.07-1.28-.16,0,0,.05.89,2.43.92.07.54-.53,1.12-.54,1.3,1.01-.43,1.25-1.14,1.51-1.39.21.32.3.77.12,1.09.48-.26,1.05-2.35,1.05-2.35.14.31,1.15,3.29-2.06,3.83.61.27,1.57.36,2.31.16-.14.79-1.6,1.43-1.6,1.43.04.02,1.01.05,1.85-.58.46.89-1.44,3.32-1.68,3.45.69-.24,1.84-1.43,1.89-1.63-.12.95-.31,1.62-.67,2.29.32-.21.56-.56.79-.96-.03,1.09-.78,3.08-.91,3.22.04-.02.19-.13.41-.33.25-.24.58-.61.89-1.17.11.73-1.06,3.25-1.13,3.39.13-.11,1.71-1.5,2.26-4.86.3.17.44,1.19.46,1.64.33-1.02.05-2.55-.13-3.4.44.49,1.24,1.41,1.72,1.63-.72-1.34-1.32-2.31-1.64-3.9.63.35,1.85.92,2.31.84-.06-.05-1.43-.69-1.39-1.34.51.01,1.64-.39,1.8-.59,0,0-.51-.25-.67-.54,1.22-.29,1.3-.81,1.34-1.09-.02.12-1.12.7-1.97.34,0,0,2.03-1.36,2.34-2.48,0,0-1.26,1.41-1.97,1.43.01-.25.29-.58.21-1.06,0,0-1.76,2.89-3.61-.08,1.81.61,2.16.22,2.39.25-.46-.16-.52-.37-.6-.38,2.12-.31,2.4-1.78,2.49-1.93-.09.17-.86.84-1.38.72.06-.04,1.03-1.11.88-1.43-.04.1-.88.78-1.13.33.12-.62,1.56-1.09,2.14-2.1.31-.53.24-1.32.09-1.89-.13.23-.23.78-.59.46-.09-.91-.29-1.45-.76-1.98.09.49.1,1.35-.25,1.51-.13-.13-.31-.43-.71-.46-.07.07,1.83,3.13-1.81,3.78-.41.08-2.46.25-3.53-.88.78-.34.8-1.72-.21-1.85.03-.55-.05-1.19.04-1.68,3.59,1.38,5.02-.56,5.21-.75.19-.19,1.31-2.18.13-4.78.04.02,3.99,3.28,3.99,12.14,0,4.72.24,7.73-2.73,12.26-.26-.05-1.1-1.23-1.72-.08-.18.34-.48,1.85,1.51,1.18,1.49,1.32,3.36,5.26,3.36,5.26,2.33-.69,2.83-1.07,5.55-2.62.08-.06.27.03.19.22-.69,1.11-4.03,2.71-5.66,3.11-.74.18-.36,1.25.51,1.13.31-.04.92-.31,1.3-.5,3.86-1.93,4.4-4.3,4.88-3.21.16.36.72.2.79.29.07.11.1.47,0,.54-.07.05-.8.07-1.29.45-1.05.8-2.23,2.25-2.23,2.25-2.29-.32-2.6,1.12-2.73,1.22,1.96-1.63,4.56.67,5.29,1.39-.07.68,0,1.69.63,1.8.82.15,1.07-.99.93-1.55,5.91,1.98,5.36-4.3,2.98-2.55v-2.2c1.88.06,2.18,1.43,2.13,2.86-.05,1.28-.71,2.62-2.13,2.42-.18.22.06.51.21.6-.37.28-.99.04-1.26-.3-.21.09-.15.55,0,.68-.24.16-.68.13-.71.5.36-.21.58.14.92.13-.03.37-.59.64-.51,1.09.53-.2,1.2-.48,1.89-.38-.01.29-.58.8-1.18.76.21.35.11.42,0,.67-.42-.04-.83-.09-1.13-.26.07.44-.22.81-.46,1.06.28,0,.78-.13,1.09.08-.07.22.1.46.21.63.4-.88,1.01-1.14,1.47-1.26.19.2.25.93.25.93.34-.48.93-.59.93-.59-.3.39-1.51,1.64-1.43,2.1.21-.36.82-.42,1.34-.34-.4.64-.96,1.01-.88,1.73.34-.4.54-.72.97-.88.03,1.29.45,2.11,1.08,2.98-.05.06-.05.16,0,.22-1.04.26-.48,2.75-1.29,3.06-.54.21-.63.25-.75.5,1.69.29,2.18-.73,2.18-1.06,0,.32.48,1.35,2.17,1.06-.12-.25-.21-.29-.75-.5-.82-.32-.25-2.81-1.3-3.06.05-.06.05-.16,0-.22.63-.87,1.05-1.68,1.08-2.98.43.16.63.48.97.88.07-.72-.48-1.09-.88-1.73.52-.08,1.14-.02,1.34.34.09-.46-1.12-1.71-1.43-2.1,0,0,.58.11.93.59,0,0,.06-.73.25-.93.46.13,1.07.39,1.47,1.26.11-.17.28-.41.21-.63.32-.21.81-.07,1.09-.08-.24-.25-.54-.62-.46-1.06-.3.17-.71.21-1.13.26-.11-.24-.21-.32,0-.67-.6.04-1.16-.47-1.18-.76.69-.1,1.36.17,1.89.38.09-.45-.47-.72-.51-1.09.34.01.57-.33.93-.13-.04-.37-.48-.34-.71-.5.15-.12.21-.58,0-.68-.27.34-.89.58-1.26.3.15-.09.39-.38.21-.6-1.43.2-2.08-1.14-2.13-2.42-.05-1.43.26-2.8,2.13-2.86v2.2c-2.38-1.75-2.93,4.52,2.98,2.55-.14.56.11,1.7.93,1.55.62-.11.7-1.13.63-1.8.73-.72,3.33-3.02,5.29-1.39-.13-.1-.44-1.54-2.73-1.22,0,0-1.18-1.45-2.23-2.25-.49-.38-1.23-.4-1.29-.45-.1-.07-.07-.44,0-.54.06-.09.63.06.79-.29.48-1.09,1.02,1.28,4.88,3.21.38.19.99.46,1.3.5.88.13,1.25-.94.51-1.13-1.63-.4-4.97-1.99-5.65-3.11-.09-.19.1-.28.18-.22,2.71,1.55,3.22,1.93,5.55,2.62,0,0,1.86-3.95,3.36-5.26,1.99.67,1.69-.84,1.51-1.18-.62-1.15-1.46.03-1.72.08-2.97-4.53-2.73-7.53-2.73-12.26,0-8.86,3.95-12.12,3.99-12.14-1.19,2.61-.06,4.6.13,4.78.19.19,1.61,2.13,5.2.75.09.49.02,1.13.04,1.68-1.01.13-.99,1.51-.21,1.85-1.06,1.13-3.11.96-3.53.88-3.64-.65-1.74-3.71-1.81-3.78-.4.03-.58.34-.71.46-.35-.16-.34-1.02-.25-1.51-.47.53-.67,1.06-.76,1.98-.36.32-.45-.23-.59-.46-.15.57-.22,1.36.09,1.89.58,1.01,2.02,1.48,2.14,2.1-.26.44-1.09-.23-1.13-.33-.15.31.82,1.39.88,1.43-.53.12-1.29-.55-1.38-.72.09.16.37,1.62,2.49,1.93-.08.01-.14.22-.6.38.24-.03.58.36,2.39-.25-1.86,2.97-3.61.08-3.61.08-.07.48.2.81.21,1.06-.71-.03-1.97-1.43-1.97-1.43.31,1.13,2.34,2.48,2.34,2.48-.85.36-1.95-.22-1.97-.34.04.28.13.79,1.34,1.09-.16.29-.67.54-.67.54.16.2,1.29.61,1.8.59.04.64-1.33,1.29-1.39,1.34.47.09,1.69-.49,2.31-.84-.32,1.59-.92,2.56-1.64,3.9.48-.22,1.28-1.14,1.72-1.63-.17.86-.46,2.38-.13,3.4.02-.45.16-1.47.46-1.64.56,3.36,2.13,4.76,2.26,4.86-.07-.15-1.24-2.66-1.13-3.39.59,1.04,1.22,1.46,1.29,1.5-.06-.07-.29-.59-.49-1.23-.21-.66-.41-1.44-.42-1.99.23.4.48.75.8.96-.37-.68-.56-1.34-.68-2.29.05.2,1.21,1.38,1.89,1.63-.23-.12-2.14-2.55-1.67-3.45.84.63,1.81.61,1.85.58,0,0-1.46-.63-1.6-1.43.74.2,1.7.11,2.31-.16-3.2-.54-2.2-3.52-2.06-3.83,0,0,.57,2.09,1.05,2.35-.18-.32-.09-.76.12-1.09.26.25.51.96,1.51,1.39-.01-.18-.62-.76-.54-1.3,2.38-.03,2.43-.92,2.43-.92h0ZM11.86,50.9c.41.27,1.64.32,1.84-.04.07.14.14-.14.21,0-.14,1.34-2.26,1.16-2.06.04h0ZM12.91,45.31c-1,.13-4.4.06-3.82-3.49.24.53,1.46,2.23,3.1,2.09,1.64-.14,2.52-1.87,2.7-2.93.13.61.58,3.98-1.98,4.33h0ZM15.27,38.85c.24-.66.27-1.12,1.01-1.89,0,.04.04,2.34.04,2.9-.39-.44-.67-.69-1.05-1.01h0ZM18.2,42.12c-.74-1.13-1.3-1.76-1.3-1.76,0-1.31-.04-3.28-.04-3.99.52-.3,1.15-.38,1.39-.38.01,1.89-.04,5.15-.04,6.13h0ZM36.71,75.13c-1.39-.54-.97-1.94,0-1.88v1.88h0ZM40.66,33.1v5.58c-.53-.27-1.06-.54-1.51-.89,0,0-.04-5.57-.04-5.75.36.43,1.56,1.06,1.56,1.06h0ZM37.32,30.24c.43.56.8.88,1.19,1.31v5.79c-.59-.38-.74-.52-1.2-.89v-6.21h0ZM30.85,30.85c.36.12.79.31,1.3.43,0,.51,0,.76,0,1.27h.66c0-.43,0-.66,0-1.09.29.08.63.11.96.11.33,0,.66-.04.96-.11,0,.44,0,.66,0,1.09h.66c0-.51,0-.76,0-1.27.51-.13.94-.31,1.3-.43,0,1.63,0,4.16,0,5.92-.38.35-.76.63-1.3.81-.01-.9-.03-2.09,0-2.93-.08.19-.23.4-.25.73-.03.44.21.73.12,1.63h-.53v.77c-.27.06-.61.09-.96.1-.36-.01-.7-.04-.96-.1v-.77h-.54c-.09-.91.16-1.19.12-1.63-.03-.33-.17-.54-.25-.73.03.84.01,2.03,0,2.93-.54-.18-.93-.46-1.3-.81,0-1.76,0-4.3,0-5.92h0ZM29.04,31.55c.39-.43.76-.75,1.19-1.31v6.21c-.44.37-.59.51-1.19.89v-5.79h0ZM26.9,33.1s1.19-.63,1.56-1.06c0,.19-.04,5.75-.04,5.75-.45.35-.98.62-1.51.89v-5.58h0ZM18.25,67.34c-.49-.63-.91-1.26-1.38-1.72.69-.73.86-.94,1.38-1.53v3.25h0ZM20.09,70.39c-.42-.84-.95-1.79-1.22-2.23,0-1.25-.04-4.49-.04-5.24,0-.13.71-.76,1.34-3.95.02,3.04.11,7.34.04,10.79,0,.19.08.49-.13.63h0ZM20.14,48.3c-.27-1.48-.44-2.89-1.3-4.75.1-2.23.01-5.45.04-7.56.51.06.88.21,1.35.38,0,3.36.16,11.25-.09,11.93h0ZM20.47,55.56c-.16-1.29-.05-3.52-.08-5.46.18.89.29,3.84.08,5.46h0ZM26.25,68.2c-.35-.16-.44-.21-.78-.42-.32.21-.4.27-.71.46v-1.66h-.65v1.98c-.17.1-.79.46-1.28.66,0-.89,0-1.91-.04-2.6-.2.03-.5-.06-.62.04,0,.82,0,1.98,0,2.94-.37.14-.78.34-1.31.5v-32.58c0-.6-.01-2.01-.01-2.01,0,0,1.12-1.81,1.33-1.66v.87h.62v-.81c.45-.03.81-.04,1.36-.09v.9h.62c0-.29,0-.94,0-.94.63-.17.96-.23,1.53-.42v5.63c-.54.24-.91.44-1.54.69v-.36s-.64,0-.64,0v.59c-.24.09-.31.13-.61.24.19.4.63.68.63,2.12,0,.56-.02,4.83-.02,6.53h.65c.03-1.88,0-4,0-5.83,2.8,8.9-.18,14.29.91,17.56.31.92.58,1.01.58,1.53v6.15h0ZM26.86,68.57c.09-1.94.01-4.06.04-6.08.03,0,.55.39,1.54.64,0,2.26,0,4.71,0,6.83-.74-.63-1.01-.9-1.58-1.39h0ZM28.43,70.04v3.03c-.39-.06-.6-1.76-.52-2.48.23-.12.34-.38.52-.55h0ZM26.52,72.69c-.09.14-.37.38-.54,1.39-.39-.33-1.03-.65-1.48-.84.51-1.44,2.08-2.44,2.78-2.44-.1,1.13-.04,2.73,2.01,4.62-2.19.04-2.72-1.41-2.77-2.73h0ZM29.04,74.13v-10.88c.27.04.42.03.71.02,0,.48.48.67.48,1.26,0,0,0,9.06,0,10.61,0,0-.73-.46-1.19-1.01h0ZM30.85,75.13v-1.88c.97-.06,1.39,1.34,0,1.88h0ZM32.15,69.84h-1.3v-1.04c.3.31.84.61,1.3.62v.42h0ZM32.15,68.82c-.13.11-.84-.01-1.3-.29v-3.56c.67.58,1.24,1.06,1.3,1.12,0,0,0,2.13,0,2.73h0ZM34.77,70.09c-.53.21-.89.64-.99,1.09-.11-.45-.47-.88-1-1.09v-3.36c.37.34.86.85,1,1.61.14-.76.62-1.28.99-1.61v3.36h0ZM36.71,69.84h-1.3v-.42c.46-.02,1-.31,1.3-.62v1.04h0ZM36.71,68.54c-.46.28-1.17.39-1.3.29,0-.59,0-2.72,0-2.73.06-.06.63-.54,1.3-1.12v3.56h0ZM37.32,75.13c0-1.55,0-10.61,0-10.61,0-.59.48-.78.48-1.26.29.01.44.02.71-.02v10.88c-.46.54-1.2,1.01-1.2,1.01h0ZM40.28,70.81c.7,0,2.27.99,2.78,2.44-.44.19-1.08.51-1.48.84-.17-1.01-.45-1.25-.54-1.39-.05,1.32-.58,2.77-2.77,2.73,2.05-1.89,2.11-3.49,2.01-4.62h0ZM39.12,73.07v-3.03c.19.17.3.43.52.55.08.71-.13,2.41-.52,2.48h0ZM39.12,69.97c0-2.12,0-4.58,0-6.83.99-.24,1.51-.64,1.54-.64.03,2.01-.06,4.14.04,6.08-.56.49-.84.76-1.58,1.39h0ZM37.17,62.74c-.59,1.87-2.78,2.16-3.39,4.01-.61-1.85-2.8-2.13-3.4-4.01-2.66.14-4.05-1.41-4.33-3.57-.13-1.01.08-2.13.21-3.28.13-1.11.2-2.28.25-3.31.24-4.97-.67-9.19-2.23-12.1,2.36-.74,4.38-1.84,6.05-3.28.26.24.52.48.84.68.72.46,1.66.7,2.6.72.94-.02,1.87-.26,2.59-.72.31-.2.58-.43.84-.68,1.67,1.44,3.68,2.53,6.05,3.28-1.56,2.91-2.46,7.13-2.23,12.1.05,1.03.13,2.21.25,3.31.13,1.15.34,2.26.21,3.28-.28,2.16-1.66,3.71-4.33,3.57h0ZM46.7,37.51v32.58c-.53-.16-.94-.36-1.31-.5,0-.96,0-2.11,0-2.94-.12-.1-.42-.01-.62-.04-.04.69-.04,1.71-.04,2.6-.49-.2-1.11-.56-1.28-.66v-1.98h-.65v1.66c-.31-.19-.39-.25-.71-.46-.33.21-.42.26-.78.42v-6.15c0-.51.28-.61.58-1.53,1.08-3.26-1.9-8.65.91-17.56,0,1.83-.03,3.95,0,5.83h.65c0-1.7-.02-5.97-.02-6.53,0-1.44.45-1.72.63-2.12-.3-.11-.37-.16-.61-.24v-.59s-.64.02-.64,0v.36c-.63-.25-1-.45-1.54-.69v-5.63c.56.19.89.25,1.53.42,0,0,0,.65,0,.94h.62v-.9c.54.04.91.06,1.36.09v.81s.61,0,.61,0v-.87c.21-.14,1.33,1.66,1.33,1.66,0,0-.01,1.41-.01,2.01h0ZM47.08,55.56c-.21-1.62-.1-4.57.09-5.46-.04,1.94.08,4.17-.09,5.46h0ZM49.3,64.09c.51.59.69.81,1.38,1.53-.46.46-.89,1.09-1.38,1.72v-3.25h0ZM48.72,62.92c0,.75-.04,3.99-.04,5.24-.27.44-.8,1.39-1.22,2.23-.21-.14-.12-.44-.13-.63-.07-3.45.02-7.75.04-10.79.64,3.2,1.34,3.83,1.34,3.95h0ZM47.42,48.3c-.25-.68-.09-8.57-.09-11.93.47-.17.84-.32,1.35-.38.03,2.11-.06,5.33.04,7.56-.86,1.86-1.03,3.26-1.3,4.75h0ZM50.65,40.36s-.56.62-1.3,1.76c0-.98-.06-4.24-.04-6.13.24,0,.87.08,1.39.38,0,.72-.04,2.69-.04,3.99h0ZM51.24,39.86c0-.56.04-2.86.04-2.9.73.78.77,1.24,1.01,1.89-.38.32-.66.57-1.05,1.01h0ZM54.64,45.31c-2.56-.34-2.11-3.72-1.98-4.33.18,1.06,1.06,2.79,2.7,2.93,1.64.14,2.85-1.56,3.1-2.09.58,3.55-2.82,3.62-3.82,3.49h0ZM53.63,50.86c.07-.14.14.14.21,0,.21.36,1.43.31,1.85.04.2,1.13-1.92,1.3-2.06-.04Z"></path>
        <rect class="cls-1" x="22.14" y="53.41" width=".65" height="8.58"></rect>
        <rect class="cls-1" x="24.11" y="53.41" width=".65" height="8.58"></rect>
        <rect class="cls-1" x="22.14" y="39.31" width=".65" height="9.49"></rect>
        <path class="cls-2" d="M27.4,25.33c-.68-1.18-1.35-.45-1.47-.34-.12.11-.63,1.59,1.01,1.22,0,.09-.02,2.26-2.31,2.31-2.33.06-2.7-2.56-2.7-2.56,0,0,2.55-2.05-.62-5.42,0,0-1.21-.62-1.41-2.01,0,0-.27.35-.14,1.43,0,0-4.2.83-5.32,9.18-.27,2.03-.91,6.23-2.15,7.14,0,0-1.07-1.43-1.72-.04-.65,1.38.73,1.44.96,1.38.22-.06.81-.5.81-.5,0,0,1.81.5,2.34-2.51,0,0,1.26-.45.56-3.61,0,0,1.7-.94.72-3.57,0,0,1.34.03,1.18-2.27,0,0,1.21-.28,1.26-3.15,0,0,.43-1.1,1.75-1.1s1.84,2.18,1.48,3.2c0,0-1.2-.22-1.2.67s.82,1.09.82,1.09c0,0,.28,4.82,2.86,5.5,2.51.67,3.18-1.18,3.53-1.98.34-.79.47-2.89-.21-4.07h0ZM24.29,30.03c-2.12-.11-2.31-2.78-2.31-2.78,2.43,3.51,4.91.58,4.91.58,0,0-.48,2.3-2.6,2.19Z"></path>
        <path class="cls-2" d="M20.89,23.52s-2.52-.72-1.89,1.72c0,0-1.49.87-.67,2.23,0,0-.88.71-.42,3.31,0,0,1.48.52,2.13,2.32,0,0,.88-.62-.78-2.42,0,0,.37-.95,1.17.65,0,0,.47-.77-1-1.98,0,0-.51-1.84,1.08.05,0,0,.42-.54-.75-1.58,0,0-1.1-2,.86-.52,0,0-2.07-3.55.28-3.78Z"></path>
        <path class="cls-2" d="M19.76,34.19s-.28-1.55-2.44-1.89c0,0-.32-.05-.32.43s1.13.51,1.13.51c0,0,.41-.06,1.63.95Z"></path>
        <path class="cls-2" d="M19.47,35.07s-.15-1.45-2.75-1.6c0,0-.32-.05-.32.43s.6.44.6.44c0,0,1.26-.4,2.47.72Z"></path>
        <path class="cls-2" d="M31.53,5.23c0-.16.13-.29.29-.29s.29.13.29.29-.13.29-.29.29-.29-.13-.29-.29Z"></path>
        <path class="cls-2" d="M30.52,5.72c0-.16.13-.29.29-.29s.29.13.29.29-.13.29-.29.29-.29-.13-.29-.29Z"></path>
        <path class="cls-2" d="M29.28,5.72c0-.16.13-.29.29-.29s.29.13.29.29-.13.29-.29.29-.29-.13-.29-.29Z"></path>
        <path class="cls-2" d="M28.2,5.36c0-.16.13-.29.29-.29s.29.13.29.29-.13.29-.29.29-.29-.13-.29-.29Z"></path>
        <path class="cls-2" d="M27.23,4.88c0-.16.13-.29.29-.29s.29.13.29.29-.13.29-.29.29-.29-.13-.29-.29Z"></path>
        <path class="cls-2" d="M30.09,3.45c0-.16.13-.29.29-.29s.29.13.29.29-.13.29-.29.29-.29-.13-.29-.29Z"></path>
        <path class="cls-2" d="M28.91,3.1c0-.16.13-.29.29-.29s.29.13.29.29-.13.29-.29.29-.29-.13-.29-.29Z"></path>
        <path class="cls-2" d="M27.65,3.1c0-.16.13-.29.29-.29s.29.13.29.29-.13.29-.29.29-.29-.13-.29-.29Z"></path>
        <path class="cls-2" d="M26.28,3.25c0-.16.13-.29.29-.29s.29.13.29.29-.13.29-.29.29-.29-.13-.29-.29Z"></path>
        <path class="cls-2" d="M25.03,3.71c0-.16.13-.29.29-.29s.29.13.29.29-.13.29-.29.29-.29-.13-.29-.29Z"></path>
        <path class="cls-2" d="M23.96,4.32c0-.16.13-.29.29-.29s.29.13.29.29-.13.29-.29.29-.29-.13-.29-.29Z"></path>
        <path class="cls-2" d="M23.08,5.37c0-.16.13-.29.29-.29s.29.13.29.29-.13.29-.29.29-.29-.13-.29-.29Z"></path>
        <path class="cls-2" d="M22.58,6.38c0-.16.13-.29.29-.29s.29.13.29.29-.13.29-.29.29-.29-.13-.29-.29Z"></path>
        <path class="cls-2" d="M22.23,7.54c0-.16.13-.29.29-.29s.29.13.29.29-.13.29-.29.29-.29-.13-.29-.29Z"></path>
        <path class="cls-2" d="M22.22,8.86c0-.16.13-.29.29-.29s.29.13.29.29-.13.29-.29.29-.29-.13-.29-.29Z"></path>
        <path class="cls-2" d="M22.6,10.25c0-.16.13-.29.29-.29s.29.13.29.29-.13.29-.29.29-.29-.13-.29-.29Z"></path>
        <path class="cls-2" d="M23.58,11.46c0-.16.13-.29.29-.29s.29.13.29.29-.13.29-.29.29-.29-.13-.29-.29Z"></path>
        <path class="cls-2" d="M24.95,12.38c0-.16.13-.29.29-.29s.29.13.29.29-.13.29-.29.29-.29-.13-.29-.29Z"></path>
        <path class="cls-2" d="M19.92,15.34c0-.16.13-.29.29-.29s.29.13.29.29-.13.29-.29.29-.29-.13-.29-.29Z"></path>
        <path class="cls-2" d="M18.83,14.4c0-.16.13-.29.29-.29s.29.13.29.29-.13.29-.29.29-.29-.13-.29-.29Z"></path>
        <path class="cls-2" d="M17.92,13.19c0-.16.13-.29.29-.29s.29.13.29.29-.13.29-.29.29-.29-.13-.29-.29Z"></path>
        <path class="cls-2" d="M17.45,11.73c0-.16.13-.29.29-.29s.29.13.29.29-.13.29-.29.29-.29-.13-.29-.29Z"></path>
        <path class="cls-2" d="M17.28,10.13c0-.16.13-.29.29-.29s.29.13.29.29-.13.29-.29.29-.29-.13-.29-.29Z"></path>
        <path class="cls-2" d="M17.63,8.57c0-.16.13-.29.29-.29s.29.13.29.29-.13.29-.29.29-.29-.13-.29-.29Z"></path>
        <path class="cls-2" d="M19.61,6.1c0-.16.13-.29.29-.29s.29.13.29.29-.13.29-.29.29-.29-.13-.29-.29Z"></path>
        <path class="cls-2" d="M20.8,5.26c0-.16.13-.29.29-.29s.29.13.29.29-.13.29-.29.29-.29-.13-.29-.29Z"></path>
        <path class="cls-2" d="M22.07,4.75c0-.16.13-.29.29-.29s.29.13.29.29-.13.29-.29.29-.29-.13-.29-.29Z"></path>
        <path class="cls-2" d="M55.92,16.17c-.24.02-.44.02-.63.09-1,.36-1.84,1.78-1.34,2.98.17.41.61.92,1.17,1.09,1.25.38,2.64-.7,2.98-1.51.67-1.57-.66-2.76-2.18-2.64h0ZM57.22,18.57c-.39.42-1.43,1.2-2.26,1.09-.32-.04-.67-.33-.72-.68-.07-.63.53-1.1.88-1.38.43-.34.83-.67,1.51-.76.53-.07,1.02.06,1.09.46.09.49-.26,1-.51,1.26Z"></path>
        <path class="cls-2" d="M12.37,17.73c-.42-.62-1.26-1.01-1.98-1.05-1.34-.07-2.14.79-2.01,2.26.03.37.08.76.38,1.01.3-.22-.08-.59-.13-.97-.04-.32-.01-.7.25-.88.12.2-.04.56,0,.88.04.29.19.54.38.63.13-.02.08-.2.17-.25.69.59,1.73.84,1.8,2.06.26-.38.58-.73.84-1.13.24-.38.57-.88.63-1.35.06-.51-.15-.93-.33-1.21h0ZM11.53,19.79c-.63-.44-1.28-.89-1.84-1.56-.44-.51-.37-1.29.59-1.04.56.14,1.44.68,1.59,1.13.2.62-.1.94-.34,1.47Z"></path>
        <path class="cls-2" d="M59.19,19.45c-.39,1.32-1.03,2.39-1.39,3.73.32-.02.63-.32.97-.59.43-.34,1.17-1.12,1.76-.46.27.3.37,1.14-.42,1.01-.35-1.11-1.15-.25-1.72.21-.55.43-1.24.66-1.18,1.59-.34-.47-.63-.99-.92-1.51.18,0,.2.07.34,0,.46-.85.8-1.83,1.17-2.77-.27.06-.5.3-.84.5-.53.33-1.14.45-1.05,1.39-.25-.44-.5-.87-.67-1.39,1,.26,1.49-.43,2.22-.92.5-.34,1.04-.69,1.39-.88.05-.03.24-.02.33.08Z"></path>
        <path class="cls-2" d="M6.16,22.43c-.04.09-.13.13-.13.25.45.5.8,1.1,1.34,1.52.18-.3-.22-.44-.34-.68.17-.2.23-.49.42-.68.21.01.41.04.59.08.04-.08.09-.16.13-.25-.66-.1-1.36-.14-2.01-.25h0ZM6.96,23.36c-.29-.13-.41-.44-.64-.63.23-.08.61.07.89.09-.05.22-.22.31-.25.54Z"></path>
        <path class="cls-2" d="M8.88,22.85c-.16.61-.58,1.16-.88,1.73-.14.27-.27.6-.42.88-.12.22-.26.66-.59.59-.1-.32.15-.59.29-.84.41-.72.83-1.58,1.26-2.31.02-.06.07-.07.09-.13.13-.02.16.05.25.08Z"></path>
        <path class="cls-2" d="M9.76,23.4c.47.91-.88,1.1-.88.34,0-.4.48-.63.88-.34Z"></path>
        <path class="cls-2" d="M6.28,24.32v-.33c-.59-.84-1.26.24-1.43.84.58.28,1.07.63,1.68.88,0-.11.07-.13.08-.21-.25-.13-.52-.24-.71-.43.15-.48.62-.73,1.26-.5-.01-.13.09-.13.08-.26-.34,0-.69-.17-.96,0h0ZM5.74,24.99c-.24-.06-.4-.19-.59-.29.15-.38.46-1.08.93-.63.04.46-.26.58-.33.92Z"></path>
        <path class="cls-2" d="M60.71,25.45c-.27.13-.48.01-.54.3-.07.31.24.45.42.46.27.01.69-.31.67-.8-.03-.64-.71-.94-1.38-.88-1.71.15-2.35,3.59.17,3.02-1.07.85-2.21-.32-2.23-1.39-.02-1.48,1.24-2.64,2.69-2.48.92.1,1.76.77,1.76,1.89,0,.82-.62,1.5-1.22,1.64-.73.17-1.33-.25-1.43-.84-.12-.78.46-1.5,1.09-.92Z"></path>
        <path class="cls-2" d="M4.43,25.5s.04.02.04.04c.05.42.26.76.51,1.05.04.04.29.15.13.21-.62-.48-1.33,1.06-.76,1.22.39.11.73-.71.84-.84.33-.43.78-.98,1.43-.96,1.28.02,1.72,2.38.76,3.36-.44.45-1.92.79-1.85-.34.03-.48.52-.38.38-1.01.32.13.52.38.84.5-.09.11-.45-.03-.54.08-.08.2.04.47.21.55.83-.04,1.24-1.03.84-1.68-.42-.68-1.04-.27-1.47.26-.42.51-.96,1.52-1.85.88-.27-.19-.66-.75-.63-1.38.04-.78.81-.86,1.01-1.3.08-.18.03-.4.13-.63Z"></path>
        <path class="cls-2" d="M62.22,27.14c.86.31,1.39,1.26,1.47,2.48.03.57-.03,1.13-.5,1.17-.57.06-.82-.62-.8-1.22.34-.02.34.3.71.25.31-.37-.09-.92-.17-1.3-.42-.36-1.12-.04-1.39.25.05.3.22.48.54.5-.23.26-.52.46-.88.59.25-.43.21-.88-.17-.92-.23-.02-1.05.54-1.09.76-.08.38.32,1.2.67,1.34.15.06.39.04.59.04.17.01-.1.24-.21.25-.28.29-.68.66-.96.8-.12-1.47-.74-2.44-1.18-3.61.26.02.49.19.8.17.39-.03.9-.33,1.34-.51.47-.19.97-.34,1.22-.63.08-.15-.02-.23,0-.42Z"></path>
        <path class="cls-2" d="M64.32,31.42c.25.51.29,1.22.46,1.81-1.17-.54-2.84.07-3.61.67-.19.15-.32.4-.55.42-.08-.58-.28-1.04-.38-1.6,1.64.44,3.33-.3,4.07-1.3Z"></path>
        <path class="cls-2" d="M5.94,31.72c.39-.15.71.04.71.37,0,.57-.94.64-1.01.08-.02-.15,0-.35.29-.46Z"></path>
        <path class="cls-2" d="M2.79,32.3c-.11.37-.23.75.25.92.31.11,1.3.08,1.93.13.2.01.34.06.46.04.41-.07.56-.49.76-.51-.13.53-.18,1.14-.34,1.64-.06.21-.14-.21-.34-.13-.93.38-1.76.87-2.69,1.26.25.15.64.14,1.01.21.65.12.97.25,1.43-.09.08-.05.24-.3.29-.17-.17.43-.27.94-.42,1.39-.34-.71-1.46-.68-2.52-.84-.3-.04-.64-.08-.93-.13-.28-.04-.64-.07-.67-.38.81-.52,1.77-.88,2.69-1.35.28-.14.6-.27.8-.5-.12-.25-.47-.15-.72-.17-.86-.06-1.94,0-1.97-.84-.02-.43.51-1.11.96-.51Z"></path>
        <path class="cls-2" d="M64.07,35.78c-.3.11-.49-.04-.59.21-.14.34.26.53.42.54.26.02.78-.35.71-.88-.07-.54-.59-.82-1.01-.88-1.86-.29-3.28,2.97-.54,2.98-.76.45-1.91.04-1.89-.92-.4.28-1.24.31-1.3-.29.45.2.98,0,1.26-.21,0-.74.27-1.3.63-1.68,1.22-1.29,4.12-.77,3.82,1.51-.08.63-.61,1.28-1.3,1.39-.48.07-.89,0-1.18-.34-.65-.76.17-2.35.97-1.43Z"></path>
        <path class="cls-2" d="M45.7,49.11h-.84c0,.49,0,.83,0,1.22h-.37v-1.22h-.9v1.22h-.37c0-.38,0-.72,0-1.22h-.84v1.22c0,.52.42.74.42,1.39s-.18.62-.18,1.43h.94c-.05-.42.23-.64.49-.63.26,0,.54.21.49.63h.94c0-.81-.18-.79-.18-1.43s.42-.87.42-1.39v-1.22Z"></path>
        <path class="cls-2" d="M25.18,49.11h-.84c0,.49,0,.83,0,1.22h-.37v-1.22h-.9v1.22h-.37c0-.38,0-.72,0-1.22h-.84v1.22c0,.52.42.74.42,1.39s-.18.62-.18,1.43h.94c-.05-.42.23-.64.49-.63.26,0,.54.21.49.63h.94c0-.81-.18-.79-.18-1.43s.42-.87.42-1.39v-1.22Z"></path>
        <path class="cls-2" d="M32.26,39.79v2.93c0,1.56.61,3.13,1.52,3.95.91-.82,1.51-2.39,1.51-3.95v-2.93h-3.03ZM33.14,41c.17,0,.32.14.32.32s-.14.33-.32.33-.33-.14-.33-.33.14-.32.33-.32h0ZM33.14,44.33c-.18,0-.33-.14-.33-.32s.14-.32.33-.32.32.14.32.32-.14.32-.32.32h0ZM33.78,43.07c-.18,0-.33-.14-.33-.32s.14-.33.33-.33.32.14.32.33-.14.32-.32.32h0ZM34.42,44.33c-.17,0-.32-.14-.32-.32s.14-.32.32-.32.32.14.32.32-.14.32-.32.32h0ZM34.42,41.64c-.17,0-.32-.14-.32-.33s.14-.32.32-.32.32.14.32.32-.14.33-.32.33Z"></path>
        <path class="cls-2" d="M32.26,48.15v2.92c0,1.56.61,3.13,1.52,3.95.91-.82,1.51-2.39,1.51-3.95v-2.92h-3.03ZM33.14,49.35c.17,0,.32.14.32.32s-.14.32-.32.32-.33-.14-.33-.32.14-.32.33-.32h0ZM33.14,52.68c-.18,0-.33-.14-.33-.32s.14-.33.33-.33.32.14.32.33-.14.32-.32.32h0ZM33.78,51.42c-.18,0-.33-.14-.33-.32s.14-.32.33-.32.32.15.32.32-.14.32-.32.32h0ZM34.42,52.68c-.17,0-.32-.14-.32-.32s.14-.33.32-.33.32.14.32.33-.14.32-.32.32h0ZM34.42,50c-.17,0-.32-.14-.32-.32s.14-.32.32-.32.32.14.32.32-.14.32-.32.32Z"></path>
        <path class="cls-2" d="M27.54,48.15v2.92c0,1.56.61,3.13,1.51,3.95.91-.82,1.52-2.39,1.52-3.95v-2.92h-3.03ZM28.42,49.35c.17,0,.32.14.32.32s-.14.32-.32.32-.33-.14-.33-.32.14-.32.33-.32h0ZM28.42,52.68c-.18,0-.33-.14-.33-.32s.14-.33.33-.33.32.14.32.33-.14.32-.32.32h0ZM29.05,51.42c-.17,0-.32-.14-.32-.32s.14-.32.32-.32.32.15.32.32-.14.32-.32.32h0ZM29.7,52.68c-.17,0-.32-.14-.32-.32s.14-.33.32-.33.32.14.32.33-.14.32-.32.32h0ZM29.7,50c-.17,0-.32-.14-.32-.32s.14-.32.32-.32.32.14.32.32-.14.32-.32.32Z"></path>
        <path class="cls-2" d="M36.98,48.15v2.92c0,1.56.61,3.13,1.52,3.95.91-.82,1.51-2.39,1.51-3.95v-2.92h-3.03ZM37.86,49.35c.17,0,.32.14.32.32s-.14.32-.32.32-.33-.14-.33-.32.14-.32.33-.32h0ZM37.86,52.68c-.18,0-.33-.14-.33-.32s.14-.33.33-.33.32.14.32.33-.14.32-.32.32h0ZM38.5,51.42c-.18,0-.33-.14-.33-.32s.14-.32.33-.32.32.15.32.32-.14.32-.32.32h0ZM39.14,52.68c-.17,0-.32-.14-.32-.32s.14-.33.32-.33.32.14.32.33-.14.32-.32.32h0ZM39.14,50c-.17,0-.32-.14-.32-.32s.14-.32.32-.32.32.14.32.32-.14.32-.32.32Z"></path>
        <path class="cls-2" d="M32.26,56.51v2.92c0,1.56.61,3.13,1.52,3.95.91-.82,1.51-2.39,1.51-3.95v-2.92h-3.03ZM33.14,57.71c.17,0,.32.14.32.33s-.14.32-.32.32-.33-.14-.33-.32.14-.33.33-.33h0ZM33.14,61.03c-.18,0-.33-.14-.33-.32s.14-.33.33-.33.32.15.32.33-.14.32-.32.32h0ZM33.78,59.78c-.18,0-.33-.14-.33-.32s.14-.32.33-.32.32.14.32.32-.14.32-.32.32h0ZM34.42,61.03c-.17,0-.32-.14-.32-.32s.14-.33.32-.33.32.15.32.33-.14.32-.32.32h0ZM34.42,58.35c-.17,0-.32-.14-.32-.32s.14-.33.32-.33.32.14.32.33-.14.32-.32.32Z"></path>
        <path class="cls-2" d="M45.7,35.01h-.84c0,.49,0,.83,0,1.22h-.37v-1.22h-.9v1.22h-.37c0-.38,0-.72,0-1.22h-.84v1.22c0,.52.42.75.42,1.39s-.18.62-.18,1.43h.94c-.05-.42.23-.64.49-.63.26,0,.54.21.49.63h.94c0-.81-.18-.79-.18-1.43s.42-.87.42-1.39v-1.22Z"></path>
        <path class="cls-2" d="M25.18,35.01h-.84c0,.49,0,.83,0,1.22h-.37v-1.22h-.9v1.22h-.37c0-.38,0-.72,0-1.22h-.84v1.22c0,.52.42.75.42,1.39s-.18.62-.18,1.43h.94c-.05-.42.23-.64.49-.63.26,0,.54.21.49.63h.94c0-.81-.18-.79-.18-1.43s.42-.87.42-1.39v-1.22Z"></path>
        <path class="cls-2" d="M45.7,62.23h-.84c0,.49,0,.83,0,1.22h-.37v-1.22h-.9v1.22h-.37c0-.38,0-.72,0-1.22h-.84v1.22c0,.52.42.74.42,1.39s-.18.62-.18,1.43h.94c-.05-.42.23-.64.49-.63.26,0,.54.21.49.63h.94c0-.81-.18-.79-.18-1.43s.42-.87.42-1.39v-1.22Z"></path>
        <path class="cls-2" d="M25.18,62.23h-.84c0,.49,0,.83,0,1.22h-.37v-1.22h-.9v1.22h-.37c0-.38,0-.72,0-1.22h-.84v1.22c0,.52.42.74.42,1.39s-.18.62-.18,1.43h.94c-.05-.42.23-.64.49-.63.26,0,.54.21.49.63h.94c0-.81-.18-.79-.18-1.43s.42-.87.42-1.39v-1.22Z"></path>
        <path class="cls-2" d="M35.44,32.79h-.84c0,.49,0,.83,0,1.22h-.37v-1.22h-.9v1.22h-.37c0-.38,0-.72,0-1.22h-.84v1.22c0,.52.42.75.42,1.39s-.18.62-.18,1.43h.94c-.05-.42.23-.64.49-.63.26,0,.54.21.49.63h.94c0-.81-.18-.79-.18-1.43s.42-.87.42-1.39v-1.22Z"></path>
        <path class="cls-2" d="M65.91,40.11c-.28.21-1.41.59-1.63,0-.11-.29.12-.71-.08-1.05-.15-.13-.62-.13-.72.04-.02.15.02.24.04.34.14.12.37-.04.42,0-.03.2.05.51-.04.63-.87.07-1.37-.23-1.43-.97.09-.09.27-.11.34-.24-.04-.44-.66-.68-.97-.39-.13.13-.23.66-.17.93.16.72,1.18.86,1.73,1.09-.32.18-.8.19-.93.55.19.26.65.24.88.46-.17.22-.62.39-1.01.34-.18-.04-.24-.21-.38-.13.07.49.04,1.11.09,1.64.87-.68,2.27-1.82,3.99-1.39-.14-.57-.17-1.19-.13-1.84h0ZM63.57,41.38c-.14-.16-.11-.6.04-.72.36-.06,1.06-.11,1.3.09,0,.46-.89.48-1.34.63Z"></path>
        <path class="cls-2" d="M67.26,41.71v.17c-.31.11-.62-.02-.8-.17-.19-.4.17-.68.13-.97-.04-.31-.38-.26-.42-.63.44-.08.95-.01,1.01.29.07.35-.48.58-.34,1.05.06.17.29.16.42.26Z"></path>
        <path class="cls-2" d="M4.81,40.36c-.24.92-.22,2.47-.21,3.78-.05.18-.17-.11-.25-.17-.12-.09-.27-.13-.34-.21-.55.17-2.35-.26-2.81.09-.12.09-.17.25-.17.41-.36-.32-.78-.89-.71-1.8.06-.74.42-1.85.8-1.93.74-.17.97.8.59,1.43-.25-.1-.23-.46-.55-.51-.3.18-.4.88-.29,1.26.14.51.69.42,1.35.34.1-.29-.04-.64-.29-.71.24-.15.59-.19.92-.25.16.07-.28.33-.29.55,0,.19.09.28.25.42.42-.08.73-.03,1.01-.17.49-.24.45-1.12.17-1.56-.15-.22-.42-.31-.72-.38.47-.24,1.1-.34,1.56-.59Z"></path>
        <path class="cls-2" d="M63.94,42.96c-1.04.16-1.85.91-1.93,1.85-.06.72.21,1.43.8,1.81,1.01.66,2.78.36,3.4-.42,1.2-1.51-.46-3.5-2.27-3.24h0ZM62.35,44.94c.01-.73.73-.89,1.47-.97.93-.09,2.43.04,2.43.97,0,1.39-3.93,1.51-3.9,0Z"></path>
        <path class="cls-2" d="M4.01,45.03c-.18-.21-.72-.5-1.09-.59-1.15-.27-2.76.58-2.9,1.6-.11.81.22,1.29.59,1.72.26.31.57.69.97.68-.04-.44-.56-.52-.8-.84-.12-.16-.33-.45-.17-.72.33.39.48.97,1.18,1.01.12-.06-.09-.22.04-.29.71-.02,1.62-.17,2.15.13.11.06.16.16.25.25.04.04.16.26.21.13-.06-1.2.14-2.43-.42-3.06h0ZM.61,46.03c-.14-1,2.15-1.13,2.69-.59.3.3.29.64.42,1.18-.83.06-3.01.12-3.11-.59Z"></path>
        <path class="cls-2" d="M65.54,51.11c-.22-.31-.47-.75-.84-.67,0,.37.43.49.63.76.16.22.36.52.21.84-.26-.11-.2-.42-.34-.62-.16-.24-.44-.38-.71-.51-.14.06-.01.28-.08.34-1.09-.07-2.22-.08-2.56-.88,0,.93-.41,2.22,0,3.02.32.64,1.3,1.02,2.1.97.6-.04,1.32-.37,1.68-.71.72-.71.4-1.83-.08-2.53h0ZM62.77,53.3c-.27-.27-.34-.69-.34-1.26v-.12c.62.17,2.96.16,2.98,1.01.02.85-2.04.99-2.64.37Z"></path>
        <path class="cls-2" d="M4.98,51.62c.22,1.07.2,2.38.34,3.53-1.29-.77-3.52-.1-4.24.59-.08-.56-.12-1.13-.21-1.68,1.02.46,2.53.26,3.44-.17.2-.3.42-.72.21-1.05-.31-.48-1.12-.09-1.51.09.02-.26.03-.45.13-.59.37-.54,1.45-.22,1.85-.71Z"></path>
        <path class="cls-2" d="M64.1,55.1c-.38-.18-1.03-.23-1.43-.16-1.31.2-2.14,1.37-1.72,2.6.38,1.1,2.25,1.83,3.4,1.31.42-.19.88-.68,1.01-1.18.27-1.07-.59-2.23-1.26-2.56h0ZM63.73,58.13c-.93-.06-2.59-.67-2.43-1.72.04-.33.3-.54.71-.63,1-.21,3.13.59,3.02,1.68-.05.51-.63.71-1.3.67Z"></path>
        <path class="cls-2" d="M4.52,58.59c.25-.24.66-.32.79-.67-.17-.27-.72-.15-.96-.34.22-.33.83-.68,1.3-.38-.1-.58-.21-1.16-.37-1.68-.84,1.07-1.93,2.09-3.66,2.14.31.46.33,1.18.51,1.76.21-.38,1.29-.82,1.59-.29.18.31-.04.74.26,1,.39.18.91-.17.54-.5-.21-.09-.32.15-.38.08-.05-.18-.08-.39-.08-.63.76-.23,1.51.04,1.59.72-.07.11-.26.11-.25.29.01.44.73.48.96.22.41-1.31-.77-1.64-1.85-1.73h0ZM4.31,58.42c-.33.16-.99.35-1.39.17.13-.54.8-.55,1.17-.84.24.06.23.37.21.67Z"></path>
        <path class="cls-2" d="M6.91,60.69c.1,1.37.79,2.51,1.17,3.74-.64-.5-1.35-.04-2.1.25-.48.19-.95.35-1.26.58v.46c-.25-.18-.6-.3-.88-.63-.49-.57-.71-1.88-.55-2.6.04-.17.28-.41.5-.42.58-.04.77.56.76,1.22-.23.07-.35-.29-.67-.25-.23.17-.12.59-.04.84.25.81.9.75,1.55.25,0-.35-.22-.48-.5-.55.19-.27.52-.41.8-.58-.04.31-.26.85.21.92.21.03,1.04-.49,1.09-.72.13-.53-.43-1.65-1.35-1.43.41-.38.86-.71,1.26-1.09Z"></path>
        <path class="cls-2" d="M60.54,63.8c-.27,0-.57-.33-.84-.46.09-.06.45.06.54-.09.02-.24-.03-.42-.17-.51-.7-.13-1.37.94-.88,1.68.2.3.67.45,1.05.17.52-.38.92-1.51,1.6-1.55.8-.05,1.68,1.25,1.18,2.1-.28.48-1.1.48-.97,1.43-.14-.21-.19-.52-.34-.75-.07-.11-.18-.21-.25-.3-.05-.06-.26-.2-.12-.25.71.48,1.42-1.3.59-1.22-.21.02-.33.34-.38.42-.28.41-.8,1.08-1.14,1.26-1.03.56-1.74-.47-1.85-1.3-.09-.73.14-1.62.54-1.97.41-.37,1.6-.62,1.77.12.1.49-.12.68-.42.93,0,.13.02.23.08.3Z"></path>
        <path class="cls-2" d="M8.25,65.22c.28.4.49.86.76,1.26-.96.18-1.38.89-1.64,1.76-.34.61-1.85.44-1.34-.54.22-.08.51.02.63.17,0,.21-.33.06-.38.21.17.43.69.17.72-.17.03-.32-.37-.79-.92-.67-.34.07-.55.5-.46.96.08.41.56.72,1.05.68.27-.03.43-.22.71-.42.64-.45,1.3-.86,1.93-1.39.31.4.51.89.8,1.3-1.36.08-2.22.66-3.06,1.26,0,.13.1.24,0,.34-1.1.1-2.39-.99-2.31-2.23.06-.97,1.35-1.63,2.23-.92.57-.39,1.07-.85,1.3-1.6Z"></path>
        <path class="cls-2" d="M59.41,68.37c0-.29.59-.65.54-1.01-.02-.19-.28-.4-.58-.38-.07.1-.17.17-.13.38.02.15.25.08.33.17-.17.14-.25.37-.42.5-.5-.2-1.14-1.03-.59-1.64.15.02.24.07.38,0,.21-1.34-1.41-.84-1.26.34.09.64.66.94.76,1.34-.31-.06-.66-.24-1.01-.12,0,.46.36.56.46.93-.54.1-1.11-.13-1.18-.63-.22.16-.35.48-.51.71-.17.26-.41.49-.42.76,1.64-.28,3.3.14,4.03,1.05.25-.61.59-1.11.96-1.59-.66.04-1.39-.36-1.38-.8h0ZM58.15,68.92c0-.36.19-.54.5-.59.29.33.86.38.93.92-.54.12-.99-.21-1.43-.34Z"></path>
        <path class="cls-2" d="M58.81,72.69c-1.39-.55-2.45-1.44-3.23-2.59-.23.45-.55.81-.79,1.26.74,0,1.46.26,1.63.8.19.54-.08,1.15-.54,1.3-.84.27-1.49-.64-1.18-1.47.11-.11.35-.11.42.04.09.23-.24.61,0,.88.78.28.78-.79.46-1.09-.15-.15-.54-.21-.67-.21-.49.01-.96.49-1.01.96-.12.98.96,1.9,1.89,1.55-.12,1.07.98,1.5,1.73,1.01.59-.4.97-1.41,1.04-2.06.04-.12.42-.31.25-.38h0ZM57.14,74.59c-.99,0-.88-1.55.08-1.64,1.05-.09.88,1.63-.08,1.64Z"></path>
        <path class="cls-2" d="M13.38,74.13c-.54-.07-1.05.16-1.51.25.16-.31.45-.5.51-.92-.29-.22-.74.16-1.05.04.19-.45.37-.89,1.05-.84-.3-.51-.67-.96-1.01-1.43-.38,1.58-1.13,2.81-2.48,3.45.46.41.81.93,1.14,1.47.03-.36.32-.66.58-.84.13-.08.43-.26.63-.21.38.1.36.87.8.93.27.03.85-.42.25-.68-.19,0-.2.16-.29.26-.09-.21-.25-.37-.34-.59.41-.43,1.46-.62,1.76.04-.06.1-.19.27-.12.38.29.36.9.11.96-.21.09-.46-.34-1.02-.88-1.09h0ZM10.4,75.01c-.03-.56.54-.86.79-1.26.27.06.38.29.43.59-.35.27-.63.63-1.22.68Z"></path>
        <path class="cls-2" d="M54.07,76.82c.06-.36.76-.49.76-.92,0-.33-.54-.73-.71-.16.02.16.19.18.29.25-.06.07-.12.17-.21.25-.29.26-.3.2-.55-.08-.34-.39-.49-1.15,0-1.47.05.11.22.08.38.08.11-.11.09-.37.09-.59-.48-.68-1.34-.09-1.38.63-.04.63.36,1.04.5,1.51-.33-.06-.61-.39-1.01-.25-.02.45.27.58.29.97-.61-.04-.97-.35-1.09-.88-.36.46-.83.82-1.18,1.3,1.65.03,3.11.61,3.78,1.76.24-.21.42-.49.63-.71.22-.23.44-.46.68-.68-.7-.05-1.07-.44-1.26-1.01h0ZM52.77,77.06c.07-.27.27-.46.46-.46.34,0,.83.74.93,1.04-.6.11-.99-.34-1.39-.59Z"></path>
        <path class="cls-2" d="M14.51,75.3c.83.84,1.52,1.81,2.31,2.69-.7.12-1.32.47-1.81.92-.55.51-1.04,1.13-1.22,2.02-.15.07-.21-.17-.3-.26-.28-.28-.67-.62-.88-1.01,1.32-.29,2.04-1.18,2.69-2.14-.08-.47-.16-.91-.54-.96-.51-.07-.89.54-1.05.96-.22-.15-.28-.41-.25-.67.07-.63,1.03-.85,1.05-1.55Z"></path>
        <path class="cls-2" d="M49.91,77.7c.32,1.24,1.17,1.93,2.02,2.64.15,0,.13-.18.34-.13.39,1.09-.4,2.54-1.35,2.82-1.16.34-2.15-.84-1.64-1.85-.52-.39-1.05-.77-1.89-.84.25-.41.67-.67.96-1.05.35.73,1.08,1.09,2.15,1.09.65.16.97,1.57-.12,1.47-.16-.14-.17-.54-.05-.72.22,0,.13.32.34.34.21-.15.09-.52-.08-.63-.62.04-.69.15-.76.38-.29,1.05,1.01,1.21,1.39.63.14-.22.23-.61.08-.97-.13-.31-.78-.77-1.18-1.09-.15-.13-.37-.3-.63-.51-.21-.17-.62-.36-.63-.46-.01-.12.38-.47.51-.59.23-.23.46-.4.54-.54Z"></path>
        <path class="cls-2" d="M17.2,78.33c.82.87,1.67,1.69,2.44,2.61-1.5.31-2.53,1.58-2.86,3.11-.44-.34-.95-.84-1.22-1.22,1.23-.38,1.97-1.25,2.52-2.31-.07-.47-.2-.89-.58-.92-.48-.04-.85.56-.97,1.01-.81-.61.22-1.51.63-1.93,0-.12-.02-.27.04-.34Z"></path>
        <path class="cls-2" d="M47.14,83.74c.09-.26.84-.38.88-.79.04-.43-.62-.74-.67-.21,0,.18.19.17.25.29-.2.09-.34.24-.54.34-.45-.37-.68-1.41-.04-1.76.13.05.21.16.42.12.12-.21.21-.41.12-.63-.23-.63-1.26-.23-1.43.34-.22.75.23,1.18.26,1.72-.33-.13-.57-.51-.97-.42-.09.44.23.7.13,1.01-.52-.14-.87-.44-.93-1.05-.41.4-.93.69-1.34,1.09.93.16,1.64.48,2.27.93.49.35,1.03.8,1.18,1.43.49-.4.94-.85,1.51-1.18-.63-.14-1.01-.53-1.09-1.22h0ZM45.8,83.79c.15-.19.29-.38.67-.33.19.4.56.61.64,1.13-.61.07-.96-.46-1.31-.8Z"></path>
        <path class="cls-2" d="M20.01,81.14c.39.45.98.93,1.26,1.35-1.42.34-2.53,1.59-2.81,3.11-.44-.32-.96-.8-1.22-1.18,1.49-.52,2.45-1.58,2.77-3.28Z"></path>
        <path class="cls-2" d="M22.41,83.07c.52.11.89.38,1.26.63-.13.17-.34.26-.46.46-.4.64-.69,2.07-.76,3.11-.02.36.02.73,0,1.09-.45-.32-.8-.73-1.39-.92.9-.55,1.01-1.9,1.18-3.19-.31,0-.82.23-1.26.5-.36.23-.91.65-.84,1.01.07.36.59.21.71.59-.44.88-1.69.3-1.6-.55.05-.49.86-1.17,1.26-1.43.63-.41,1.3-.57,1.89-.75v-.55Z"></path>
        <path class="cls-2" d="M46.13,86.18c.42.23.24,1.21-.17,1.34-.41-.22-.21-1.24.17-1.34Z"></path>
        <path class="cls-2" d="M53.99,16.64c-.2.36-.64.68-1.3.54-.76-.15-1.39-1.18-1.26-2.35.12-1.13,1.65-2.67,3.32-1.8.46.24,1.08.97.93,1.93-.1.62-1.21,1.88-2.14,1.01-.45-.42-.56-2,.54-1.52-.16.26-.45.1-.42.47.01.21.28.33.42.34.14,0,.63-.13.59-.8-.05-.69-.93-.96-1.68-.63-.44.2-.9.79-.97,1.43-.13,1.2.76,2.14,1.97,1.39Z"></path>
        <path class="cls-2" d="M16.32,14.41c-1.71-.15-2.99-.73-3.74-1.85-.32.55-.78.98-1.26,1.39.11-.02.34.01.42.04.26.09.88.6.84.96-.04.36-.74.58-.76.92,0,.36.68.73.72.17-.02-.16-.19-.17-.29-.25.13-.17.3-.32.5-.42.48.29.86,1.28.26,1.72-.09-.06-.21-.11-.38-.09-.3.41-.03.91.38.93.36.01.79-.34.88-.71.16-.66-.34-1.34-.47-1.77.31.11.63.39,1.01.29.06-.45-.34-.66-.25-1.01.55.11.94.37,1.05.92.24-.33.64-.68.92-.96.07-.07.32-.29.17-.3h0ZM12.54,14.12c.56-.09.94.37,1.34.59-.25,1.05-1.27-.04-1.34-.59Z"></path>
      </g>
    </g>
  </g>
</svg>
